<?xml version="1.0" encoding="UTF-8" standalone="no"?>
<svg
   xmlns:dc="http://purl.org/dc/elements/1.1/"
   xmlns:cc="http://creativecommons.org/ns#"
   xmlns:rdf="http://www.w3.org/1999/02/22-rdf-syntax-ns#"
   xmlns:svg="http://www.w3.org/2000/svg"
   xmlns="http://www.w3.org/2000/svg"
   id="svg46"
   version="1.1"
   style="overflow:visible"
   viewBox="-240 -126 480 252"
   height="1008px"
   width="1920px">
  <metadata
     id="metadata52">
    <rdf:RDF>
      <cc:Work
         rdf:about="">
        <dc:format>image/svg+xml</dc:format>
        <dc:type
           rdf:resource="http://purl.org/dc/dcmitype/StillImage" />
      </cc:Work>
    </rdf:RDF>
  </metadata>
  <defs
     id="defs50" />
  <rect
     id="rect2"
     fill-opacity="0"
     fill="rgb(0,0,0)"
     height="252"
     width="480"
     y="-126"
     x="-240" />
  <svg
     id="svg44"
     version="1.1"
     y="-232"
     x="-250"
     viewBox="-250 -250 500 500"
     height="500"
     width="500"
     style="overflow:visible">
    <g
       style="fill:#ffffff;stroke-linejoin:round"
       id="g42">
      <path
         style="fill:#ffffff;fill-opacity:1;stroke:none;stroke-linecap:butt;stroke-linejoin:round"
         id="path4"
         d="m -59.233021,-71.1381 h 118.46604 v 38.897958 h -118.46604 z" />
      <path
         style="fill:#444444;fill-opacity:1;stroke:none;stroke-linecap:butt;stroke-linejoin:round"
         id="path6"
         d="m -42.304021,-57.684001 h 19.928502 v 10.725395 h -19.928502 z" />
      <path
         style="fill:#444444;fill-opacity:1;stroke:none;stroke-linecap:butt;stroke-linejoin:round"
         id="path8"
         d="m 22.37598,-57.684001 h 19.928502 v 10.725395 H 22.37598 Z" />
      <path
         style="fill:none;stroke:#444444;stroke-width:4;stroke-linecap:butt;stroke-linejoin:round;stroke-opacity:1"
         id="path10"
         d="m -59.233021,-71.1381 h 118.46604 v 38.897958 h -118.46604 z" />
      <path
         style="fill:#ffffff;fill-opacity:1;stroke:none;stroke-linecap:butt;stroke-linejoin:round"
         id="path12"
         d="M -79.852741,2.952839 V 43.766183 H 79.853399 V 2.952839 Z" />
      <path
         style="fill:#444444;fill-opacity:1;stroke:none;stroke-linecap:butt;stroke-linejoin:round"
         id="path14"
         d="m -60.124021,17.655 h 19.928502 v 10.725395 h -19.928502 z" />
      <path
         style="fill:#444444;fill-opacity:1;stroke:none;stroke-linecap:butt;stroke-linejoin:round"
         id="path16"
         d="M 40.19598,17.655 H 60.124482 V 28.380395 H 40.19598 Z" />
      <path
         style="fill:#444444;fill-opacity:1;stroke:none;stroke-linecap:butt;stroke-linejoin:round"
         id="path18"
         d="M -9.964021,17.655 H 9.964481 V 28.380395 H -9.964021 Z" />
      <path
         style="fill:none;stroke:#444444;stroke-width:4;stroke-linecap:butt;stroke-linejoin:round;stroke-opacity:1"
         id="path20"
         d="M -79.852741,2.952839 V 43.766183 H 79.853399 V 2.952839 Z" />
      <path
         style="fill:#848eb4;fill-opacity:1;stroke:#444444;stroke-width:4;stroke-linecap:butt;stroke-linejoin:round;stroke-opacity:1"
         id="path22"
         d="m -35.81622,-112.74813 c 0,21.775577 -20.479669,38.27175 -29.719866,38.27175 -7.125294,0 -7.33953,8.702694 0,8.702694 h 131.07204 c 7.33953,0 7.125228,-8.702695 0,-8.702695 -9.240198,0 -29.719866,-16.496173 -29.719866,-38.271749 z" />
      <path
         style="fill:#ffe370;fill-opacity:1;stroke:#444444;stroke-width:4;stroke-linecap:butt;stroke-linejoin:round;stroke-opacity:1"
         id="path24"
         d="m -30.294001,-110.70167 c 5.216851,-0.43266 6.216698,-7.91934 0.780621,-9.49337 -4.098244,-1.18667 -5.392266,-4.41979 -4.68371,-7.61449 0.875945,-3.94946 -3.805521,-4.64781 -5.464338,-0.39556 -1.658811,4.25225 -1.407431,18.39704 9.367446,17.50347 z" />
      <path
         style="fill:#ffe370;fill-opacity:1;stroke:#444444;stroke-width:4;stroke-linecap:butt;stroke-linejoin:round;stroke-opacity:1"
         id="path26"
         d="m 30.293999,-110.70167 c -5.216845,-0.43266 -6.216692,-7.91934 -0.780616,-9.49337 4.098243,-1.18667 5.392266,-4.41979 4.683703,-7.61449 -0.875946,-3.94946 3.805527,-4.64781 5.464344,-0.39556 1.658804,4.25225 1.407423,18.39704 -9.367446,17.50347 z" />
      <path
         style="fill:#848eb4;fill-opacity:1;stroke:#444444;stroke-width:4;stroke-linecap:butt;stroke-linejoin:round;stroke-opacity:1"
         id="path28"
         d="m -66.757681,-39.199381 c -4.774183,16.259561 -15.060408,38.273136 -24.300607,38.273136 -7.125228,0 -7.33953,8.701374 0,8.701374 h 182.11644 c 7.33953,0 7.125294,-8.701374 0,-8.701374 -9.240198,0 -19.52643,-22.013508 -24.300607,-38.273136 z" />
      <path
         style="fill:#bba78b;fill-opacity:1;stroke:none;stroke-linecap:butt;stroke-linejoin:round"
         id="path30"
         d="m -72.781501,56.14092 v 16.845972 l -24.66816,-7e-6 4.946475,-16.845972 z m 160.1193,16.845972 -2.7e-5,16.845972 H 102.39613 L 97.449651,72.986892 Z M 72.781499,56.14092 v 16.845972 l 24.66816,-7e-6 L 92.50319,56.140913 Z M 29.112598,72.986892 h 29.1126 v 16.845972 h -29.1126 z M -43.668903,56.14092 h 29.1126 v 16.845972 h -29.1126 z M -3e-6,39.294948 h 29.1126 V 56.14092 H -3e-6 Z m -87.337801,33.691944 h 29.1126 v 16.845972 h -29.1126 z m 58.2252,0 H -4e-6 v 16.845972 h -29.1126 z m 43.6689,-16.845972 h 29.1126 v 16.845972 h -29.1126 z M -58.225205,39.294948 h 29.1126 V 56.14092 h -29.1126 z m 145.78212,0 4.946482,16.845972 H 58.225703 V 39.294948 Z" />
      <path
         style="fill:#cfc1ad;fill-opacity:1;stroke:none;stroke-linecap:butt;stroke-linejoin:round"
         id="path32"
         d="m -87.337801,72.98676 3.3e-5,16.845972 h -15.058362 l 4.946475,-16.845972 z m 87.3378,0 h 29.1126 V 89.832732 H -1e-6 Z m 43.6689,-16.845972 h 29.1126 V 72.98676 h -29.1126 z m -14.5563,-16.845972 h 29.1126 v 16.845972 h -29.1126 z m -43.668901,16.845972 h 29.1126 V 72.98676 h -29.1126 z M -58.225203,72.98676 h 29.1126 v 16.845972 h -29.1126 z m 29.1126,-33.691944 H -3e-6 v 16.845972 h -29.1126 z m 87.3378,33.691944 h 29.1126 v 16.845972 h -29.1126 z m -131.0067,-16.845972 h 29.1126 V 72.98676 h -29.1126 z M -87.556395,39.294816 -92.502864,56.140788 H -58.22517 V 39.294816 Z" />
      <path
         style="fill:none;stroke:#444444;stroke-width:4;stroke-linecap:butt;stroke-linejoin:round;stroke-opacity:1"
         id="path34"
         d="M -87.556261,39.29508 -102.3957,89.832995 H 102.39636 L 87.556917,39.295079 Z" />
      <path
         style="fill:none;stroke:#444444;stroke-width:4;stroke-linecap:butt;stroke-linejoin:round;stroke-opacity:1"
         id="path36"
         d="M 14.5563,56.14092 V 72.986892 M 72.7815,56.14092 V 72.986892 M 43.6689,56.14092 V 72.986892 M -14.5563,56.14092 V 72.986892 M -43.6689,56.14092 V 72.986892 M -72.7815,56.14092 V 72.986892 M 0,39.294948 V 56.14092 M 58.2252,39.294948 V 56.14092 M 29.1126,39.294948 V 56.14092 M -29.1126,39.294948 V 56.14092 M -58.2252,39.294948 V 56.14092 M 0,72.986892 V 89.832864 M 87.3378,72.986892 V 89.832864 M 58.2252,72.986892 V 89.832864 M 29.1126,72.986892 V 89.832864 M -29.1126,72.986892 V 89.832864 M -58.2252,72.986892 V 89.832864 M -87.3378,72.986892 V 89.832864 M -96.971358,72.986892 H 97.927962 M -92.502498,56.14092 h 185.00592" />
      <path
         style="fill:#ffffff;fill-opacity:1;stroke:#444444;stroke-width:4;stroke-linecap:butt;stroke-linejoin:round;stroke-opacity:1"
         id="path38"
         d="m 0,-39.341281 -32.268127,26.40297 h 64.536252 z" />
      <path
         style="fill:#848eb4;fill-opacity:1;stroke:#444444;stroke-width:4;stroke-linecap:butt;stroke-linejoin:round;stroke-opacity:1"
         id="path40"
         d="m 0,-47.713381 c -18.593718,19.163232 -27.080592,29.185002 -35.932512,28.934664 -7.531459,-0.213042 -3.36872,10.678932 4.612271,10.42965 4.008945,-0.125196 10.231782,-2.505215 31.320234,-24.239622 21.088452,21.734394 27.311262,24.11442 31.320234,24.239622 7.980984,0.249235 12.14235,-10.642698 4.610905,-10.42965 C 27.079211,-18.52834 18.593724,-28.550083 6e-6,-47.713381 Z" />
    </g>
  </svg>
</svg>
